<svg width="48" height="48" viewBox="0 0 48 48" fill="none" xmlns="http://www.w3.org/2000/svg">
<g id="material-icon-theme:pdf">
<path id="Vector" d="M26 18H37L26 7V18ZM12 4H28L40 16V40C40 41.0609 39.5786 42.0783 38.8284 42.8284C38.0783 43.5786 37.0609 44 36 44H12C10.9391 44 9.92172 43.5786 9.17157 42.8284C8.42143 42.0783 8 41.0609 8 40V8C8 6.93913 8.42143 5.92172 9.17157 5.17157C9.92172 4.42143 10.9391 4 12 4ZM21.86 24.88C22.68 26.68 23.72 28.16 24.92 29.18L25.74 29.82C24 30.14 21.6 30.7 19.06 31.68L18.84 31.76L19.84 29.68C20.74 27.94 21.4 26.36 21.86 24.88ZM34.82 32.5C35.18 32.14 35.36 31.68 35.38 31.18C35.44 30.78 35.34 30.4 35.14 30.08C34.56 29.14 33.06 28.7 30.58 28.7L28 28.84L26.26 27.68C25 26.64 23.86 24.82 23.06 22.56L23.14 22.28C23.8 19.62 24.42 16.4 23.1 15.08C22.9385 14.9232 22.7476 14.8001 22.5381 14.7177C22.3287 14.6353 22.105 14.5953 21.88 14.6H21.4C20.66 14.6 20 15.38 19.82 16.14C19.08 18.8 19.52 20.26 20.26 22.68V22.7C19.76 24.46 19.12 26.5 18.1 28.56L16.18 32.16L14.4 33.14C12 34.64 10.86 36.32 10.64 37.38C10.56 37.76 10.6 38.1 10.74 38.46L10.8 38.56L11.76 39.18L12.64 39.4C14.26 39.4 16.1 37.5 18.58 33.26L18.94 33.12C21 32.46 23.56 32 27 31.62C29.06 32.64 31.48 33.1 33 33.1C33.88 33.1 34.48 32.88 34.82 32.5ZM34 31.08L34.18 31.3C34.16 31.5 34.1 31.52 34 31.56H33.92L33.54 31.6C32.62 31.6 31.2 31.22 29.74 30.58C29.92 30.38 30 30.38 30.2 30.38C33 30.38 33.8 30.88 34 31.08ZM15.66 34C14.36 36.38 13.18 37.7 12.28 38C12.38 37.24 13.28 35.92 14.7 34.62L15.66 34ZM21.7 20.18C21.24 18.38 21.22 16.92 21.56 16.08L21.7 15.84L22 15.94C22.34 16.42 22.38 17.06 22.18 18.14L22.12 18.46L21.8 20.1L21.7 20.18Z" fill="#EF5350"/>
</g>
</svg>
